<?xml version="1.0" encoding="UTF-8"?><svg xmlns="http://www.w3.org/2000/svg" xmlns:xlink="http://www.w3.org/1999/xlink" fill-opacity="1" color-rendering="auto" color-interpolation="auto" text-rendering="auto" stroke="black" stroke-linecap="square" width="567" stroke-miterlimit="10" shape-rendering="auto" stroke-opacity="1" fill="black" stroke-dasharray="none" font-weight="normal" stroke-width="1" height="626" font-family="'Dialog'" font-style="normal" stroke-linejoin="miter" font-size="12px" stroke-dashoffset="0" image-rendering="auto">
  <!--Generated by ySVG 2.6-->
  <defs id="genericDefs"/>
  <g>
    <defs id="defs1">
      <clipPath clipPathUnits="userSpaceOnUse" id="clipPath1">
        <path d="M0 0 L567 0 L567 626 L0 626 L0 0 Z"/>
      </clipPath>
      <clipPath clipPathUnits="userSpaceOnUse" id="clipPath2">
        <path d="M-445 -323 L122 -323 L122 303 L-445 303 L-445 -323 Z"/>
      </clipPath>
    </defs>
    <g fill="white" text-rendering="geometricPrecision" shape-rendering="geometricPrecision" transform="translate(445,323)" stroke="white">
      <rect x="-445" width="567" height="626" y="-323" clip-path="url(#clipPath2)" stroke="none"/>
    </g>
    <g fill="rgb(245,245,245)" text-rendering="geometricPrecision" shape-rendering="geometricPrecision" transform="matrix(1,0,0,1,445,323)" stroke="rgb(245,245,245)">
      <rect x="-429" y="82.6235" clip-path="url(#clipPath2)" width="535.875" rx="4" ry="4" height="205.2271" stroke="none"/>
      <rect x="-429" y="82.6235" clip-path="url(#clipPath2)" fill="rgb(235,235,235)" width="535.875" height="22.3765" stroke="none"/>
    </g>
    <g font-size="15px" stroke-linecap="butt" transform="matrix(1,0,0,1,445,323)" text-rendering="geometricPrecision" font-family="sans-serif" shape-rendering="geometricPrecision" stroke-miterlimit="1.45">
      <text x="44.8384" xml:space="preserve" y="99.7041" clip-path="url(#clipPath2)" stroke="none">Frontend</text>
      <rect x="-429" y="82.6235" clip-path="url(#clipPath2)" fill="none" width="535.875" stroke-dasharray="6,2" rx="4" ry="4" height="205.2271"/>
    </g>
    <g fill="white" text-rendering="geometricPrecision" shape-rendering="geometricPrecision" transform="matrix(1,0,0,1,445,323)" stroke="white">
      <rect x="-414" y="152.5" clip-path="url(#clipPath2)" width="107" rx="4" ry="4" height="78" stroke="none"/>
    </g>
    <g text-rendering="geometricPrecision" stroke-miterlimit="1.45" shape-rendering="geometricPrecision" font-family="sans-serif" transform="matrix(1,0,0,1,445,323)" stroke-linecap="butt">
      <text x="-373.5049" xml:space="preserve" y="196.2139" clip-path="url(#clipPath2)" stroke="none">View</text>
      <text x="-382.5107" xml:space="preserve" y="260.2139" clip-path="url(#clipPath2)" stroke="none">UI Logic</text>
      <rect x="-414" y="152.5" clip-path="url(#clipPath2)" fill="none" width="107" rx="4" ry="4" height="78"/>
    </g>
    <g fill="white" text-rendering="geometricPrecision" shape-rendering="geometricPrecision" transform="matrix(1,0,0,1,445,323)" stroke="white">
      <rect x="-197.5" y="152.5" clip-path="url(#clipPath2)" width="107" rx="4" ry="4" height="78" stroke="none"/>
    </g>
    <g text-rendering="geometricPrecision" stroke-miterlimit="1.45" shape-rendering="geometricPrecision" font-family="sans-serif" transform="matrix(1,0,0,1,445,323)" stroke-linecap="butt">
      <text x="-173.3467" xml:space="preserve" y="196.2139" clip-path="url(#clipPath2)" stroke="none">ViewModel</text>
      <text x="-193.6992" xml:space="preserve" y="257.2139" clip-path="url(#clipPath2)" stroke="none">Presentation Logic</text>
      <rect x="-197.5" y="152.5" clip-path="url(#clipPath2)" fill="none" width="107" rx="4" ry="4" height="78"/>
    </g>
    <g fill="white" text-rendering="geometricPrecision" shape-rendering="geometricPrecision" transform="matrix(1,0,0,1,445,323)" stroke="white">
      <rect x="-45" y="152.5" clip-path="url(#clipPath2)" width="107" rx="4" ry="4" height="78" stroke="none"/>
    </g>
    <g text-rendering="geometricPrecision" stroke-miterlimit="1.45" shape-rendering="geometricPrecision" font-family="sans-serif" transform="matrix(1,0,0,1,445,323)" stroke-linecap="butt">
      <text x="-7.8418" xml:space="preserve" y="196.2139" clip-path="url(#clipPath2)" stroke="none">Model</text>
      <text x="-57.875" xml:space="preserve" y="258.2139" clip-path="url(#clipPath2)" stroke="none">Business Logic and Data</text>
      <rect x="-45" y="152.5" clip-path="url(#clipPath2)" fill="none" width="107" rx="4" ry="4" height="78"/>
    </g>
    <g text-rendering="geometricPrecision" stroke-miterlimit="1.45" shape-rendering="geometricPrecision" transform="matrix(1,0,0,1,445,323)" stroke-linecap="butt">
      <path fill="none" d="M-295.9828 191.5 L-208.5185 191.5" clip-path="url(#clipPath2)"/>
      <path d="M-306.9828 191.5 L-294.9828 197.5 L-294.9828 185.5 Z" clip-path="url(#clipPath2)" stroke="none"/>
      <path d="M-197.5185 191.5 L-209.5185 185.5 L-209.5185 197.5 Z" clip-path="url(#clipPath2)" stroke="none"/>
      <text x="-285.3481" xml:space="preserve" y="189.8274" clip-path="url(#clipPath2)" font-family="sans-serif" stroke="none">Data Binding</text>
    </g>
    <g text-rendering="geometricPrecision" stroke-miterlimit="1.45" shape-rendering="geometricPrecision" transform="matrix(1,0,0,1,445,323)" stroke-linecap="butt">
      <path fill="none" d="M-295.9801 214.4912 L-208.5151 214.4912" clip-path="url(#clipPath2)"/>
      <path d="M-306.9801 214.4912 L-294.9801 220.4912 L-294.9801 208.4912 Z" clip-path="url(#clipPath2)" stroke="none"/>
      <path d="M-197.5151 214.4912 L-209.5151 208.4912 L-209.5151 220.4912 Z" clip-path="url(#clipPath2)" stroke="none"/>
      <text x="-282.9268" xml:space="preserve" y="211.6553" clip-path="url(#clipPath2)" font-family="sans-serif" stroke="none">Commands</text>
    </g>
    <g text-rendering="geometricPrecision" stroke-miterlimit="1.45" shape-rendering="geometricPrecision" transform="matrix(1,0,0,1,445,323)" stroke-linecap="butt">
      <path fill="none" d="M-197.4794 165.5647 L-296.007 165.5647" clip-path="url(#clipPath2)"/>
      <path d="M-307.007 165.5647 L-295.007 171.5647 L-295.007 159.5647 Z" clip-path="url(#clipPath2)" stroke="none"/>
      <text x="-278.427" xml:space="preserve" y="163.0158" clip-path="url(#clipPath2)" font-family="sans-serif" stroke="none">Notification</text>
    </g>
    <g text-rendering="geometricPrecision" stroke-miterlimit="1.45" shape-rendering="geometricPrecision" transform="matrix(1,0,0,1,445,323)" stroke-linecap="butt">
      <path fill="none" d="M-90.4984 171.8392 L-56.0113 171.8392" clip-path="url(#clipPath2)"/>
      <path d="M-45.0113 171.8392 L-57.0113 165.8392 L-57.0113 177.8392 Z" clip-path="url(#clipPath2)" stroke="none"/>
    </g>
    <g text-rendering="geometricPrecision" stroke-miterlimit="1.45" shape-rendering="geometricPrecision" transform="matrix(1,0,0,1,445,323)" stroke-linecap="butt">
      <path fill="none" d="M-45.0259 205.0227 L-79.4883 205.0227" clip-path="url(#clipPath2)"/>
      <path d="M-90.4883 205.0227 L-78.4883 211.0227 L-78.4883 199.0227 Z" clip-path="url(#clipPath2)" stroke="none"/>
    </g>
    <g fill="rgb(245,245,245)" text-rendering="geometricPrecision" shape-rendering="geometricPrecision" transform="matrix(1,0,0,1,445,323)" stroke="rgb(245,245,245)">
      <rect x="-429.1875" y="-307.3403" clip-path="url(#clipPath2)" width="536.0625" rx="4" ry="4" height="359.8064" stroke="none"/>
      <rect x="-429.1875" y="-307.3403" clip-path="url(#clipPath2)" fill="rgb(235,235,235)" width="536.0625" height="22.3765" stroke="none"/>
    </g>
    <g font-size="15px" stroke-linecap="butt" transform="matrix(1,0,0,1,445,323)" text-rendering="geometricPrecision" font-family="sans-serif" shape-rendering="geometricPrecision" stroke-miterlimit="1.45">
      <text x="46.501" xml:space="preserve" y="-290.2598" clip-path="url(#clipPath2)" stroke="none">Backend</text>
      <rect x="-429.1875" y="-307.3403" clip-path="url(#clipPath2)" fill="none" width="536.0625" stroke-dasharray="6,2" rx="4" ry="4" height="359.8064"/>
      <text x="-359.6602" xml:space="preserve" font-size="12px" y="-167.75" clip-path="url(#clipPath2)" stroke="none">Report Server</text>
      <rect x="-394.1875" y="-219.3389" clip-path="url(#clipPath2)" fill="none" width="143.75" rx="4" ry="4" height="93.75"/>
      <text x="-170.0098" xml:space="preserve" font-size="12px" y="-49.75" clip-path="url(#clipPath2)" stroke="none">Controller</text>
      <rect x="-197.5" y="-93.4639" clip-path="url(#clipPath2)" fill="none" width="107" rx="4" ry="4" height="78"/>
      <text x="-8.9443" xml:space="preserve" font-size="12px" y="-64.4512" clip-path="url(#clipPath2)" stroke="none">Services</text>
      <text x="-41.9619" xml:space="preserve" font-size="12px" y="-49.75" clip-path="url(#clipPath2)" stroke="none">(Transaction Handler</text>
      <text x="-7.2773" xml:space="preserve" font-size="12px" y="-35.0488" clip-path="url(#clipPath2)" stroke="none">Implied)</text>
      <rect x="-63.75" y="-93.4639" clip-path="url(#clipPath2)" fill="none" width="155.625" rx="4" ry="4" height="78"/>
      <text x="-109.4336" xml:space="preserve" font-size="12px" y="-145.625" clip-path="url(#clipPath2)" stroke="none">Domain Models</text>
      <rect x="-197.5" y="-168.7139" clip-path="url(#clipPath2)" fill="none" width="259.5" rx="4" ry="4" height="36.75"/>
      <text x="-115.4424" xml:space="preserve" font-size="12px" y="-250.25" clip-path="url(#clipPath2)" stroke="none">Database Objects</text>
      <rect x="-197.5" y="-269.9639" clip-path="url(#clipPath2)" fill="none" width="259.5" rx="4" ry="4" height="30"/>
    </g>
    <g fill="white" text-rendering="geometricPrecision" shape-rendering="geometricPrecision" transform="matrix(1,0,0,1,445,323)" stroke="white">
      <rect x="-197.5" y="-219.3389" clip-path="url(#clipPath2)" width="259.5" rx="4" ry="4" height="30" stroke="none"/>
    </g>
    <g text-rendering="geometricPrecision" stroke-miterlimit="1.45" shape-rendering="geometricPrecision" font-family="sans-serif" transform="matrix(1,0,0,1,445,323)" stroke-linecap="butt">
      <text x="-93.7656" xml:space="preserve" y="-199.625" clip-path="url(#clipPath2)" stroke="none">Hibernate</text>
      <rect x="-197.5" y="-219.3389" clip-path="url(#clipPath2)" fill="none" width="259.5" rx="4" ry="4" height="30"/>
    </g>
    <g fill="white" text-rendering="geometricPrecision" shape-rendering="geometricPrecision" transform="matrix(1,0,0,1,445,323)" stroke="white">
      <rect x="-221.166" y="7.4661" clip-path="url(#clipPath2)" width="137.5" rx="4" ry="4" height="30" stroke="none"/>
    </g>
    <g text-rendering="geometricPrecision" stroke-miterlimit="1.45" shape-rendering="geometricPrecision" font-family="sans-serif" transform="matrix(1,0,0,1,445,323)" stroke-linecap="butt">
      <text x="-196.0976" xml:space="preserve" y="27.1799" clip-path="url(#clipPath2)" stroke="none">Interceptor/Filter</text>
      <rect x="-221.166" y="7.4661" clip-path="url(#clipPath2)" fill="none" width="137.5" rx="4" ry="4" height="30"/>
    </g>
    <g text-rendering="geometricPrecision" stroke-miterlimit="1.45" shape-rendering="geometricPrecision" transform="matrix(1,0,0,1,445,323)" stroke-linecap="butt">
      <path fill="none" d="M-169.834 152.4977 L-169.834 -4.4817" clip-path="url(#clipPath2)"/>
      <path d="M-169.834 -15.4817 L-175.834 -3.4817 L-163.834 -3.4817 Z" clip-path="url(#clipPath2)" stroke="none"/>
      <text x="-222.1817" xml:space="preserve" y="73.2319" clip-path="url(#clipPath2)" font-family="sans-serif" stroke="none">Request</text>
    </g>
    <g text-rendering="geometricPrecision" stroke-miterlimit="1.45" shape-rendering="geometricPrecision" transform="matrix(1,0,0,1,445,323)" stroke-linecap="butt">
      <path fill="none" d="M-135.6465 -15.4687 L-135.6465 141.4711" clip-path="url(#clipPath2)"/>
      <path d="M-135.6465 152.4711 L-129.6465 140.4711 L-141.6465 140.4711 Z" clip-path="url(#clipPath2)" stroke="none"/>
      <text x="-129.6641" xml:space="preserve" y="73.2319" clip-path="url(#clipPath2)" font-family="sans-serif" stroke="none">Respond</text>
    </g>
    <g text-rendering="geometricPrecision" stroke-miterlimit="1.45" shape-rendering="geometricPrecision" transform="matrix(1,0,0,1,445,323)" stroke-linecap="butt">
      <path fill="none" d="M-197.5025 -54.4639 L-312.3125 -54.4639 L-316.6875 -55.0889 L-319.8125 -56.9639 L-321.6875 -60.0889 L-322.3125 -64.4639 L-322.3125 -114.5923" clip-path="url(#clipPath2)"/>
      <path d="M-322.3125 -125.5923 L-328.3125 -113.5923 L-316.3125 -113.5923 Z" clip-path="url(#clipPath2)" stroke="none"/>
    </g>
    <g text-rendering="geometricPrecision" stroke-miterlimit="1.45" shape-rendering="geometricPrecision" transform="matrix(1,0,0,1,445,323)" stroke-linecap="butt">
      <path fill="none" d="M-90.4764 -62.4639 L-74.7547 -62.4639" clip-path="url(#clipPath2)"/>
      <path d="M-63.7547 -62.4639 L-75.7547 -68.4639 L-75.7547 -56.4639 Z" clip-path="url(#clipPath2)" stroke="none"/>
    </g>
    <g text-rendering="geometricPrecision" stroke-miterlimit="1.45" shape-rendering="geometricPrecision" transform="matrix(1,0,0,1,445,323)" stroke-linecap="butt">
      <path fill="none" d="M-63.7306 -42.4639 L-79.5242 -42.4639" clip-path="url(#clipPath2)"/>
      <path d="M-90.5242 -42.4639 L-78.5242 -36.4639 L-78.5242 -48.4639 Z" clip-path="url(#clipPath2)" stroke="none"/>
    </g>
    <g text-rendering="geometricPrecision" stroke-miterlimit="1.45" shape-rendering="geometricPrecision" transform="matrix(1,0,0,1,445,323)" stroke-linecap="butt">
      <path fill="none" d="M8.5 -104.4599 L8.5 -120.981" clip-path="url(#clipPath2)"/>
      <path d="M8.5 -93.4599 L14.5 -105.4599 L2.5 -105.4599 Z" clip-path="url(#clipPath2)" stroke="none"/>
      <path d="M8.5 -131.981 L2.5 -119.981 L14.5 -119.981 Z" clip-path="url(#clipPath2)" stroke="none"/>
      <text x="22.3224" xml:space="preserve" y="-110.56" clip-path="url(#clipPath2)" font-family="sans-serif" stroke="none">Transactional</text>
    </g>
    <g text-rendering="geometricPrecision" stroke-miterlimit="1.45" shape-rendering="geometricPrecision" transform="matrix(1,0,0,1,445,323)" stroke-linecap="butt">
      <path fill="none" d="M-144 -120.941 L-144 -104.4672" clip-path="url(#clipPath2)"/>
      <path d="M-144 -131.941 L-150 -119.941 L-138 -119.941 Z" clip-path="url(#clipPath2)" stroke="none"/>
      <path d="M-144 -93.4672 L-138 -105.4672 L-150 -105.4672 Z" clip-path="url(#clipPath2)" stroke="none"/>
      <text x="-137.8244" xml:space="preserve" y="-108.64" clip-path="url(#clipPath2)" font-family="sans-serif" stroke="none">Non-transactional</text>
    </g>
    <g text-rendering="geometricPrecision" stroke-miterlimit="1.45" shape-rendering="geometricPrecision" transform="matrix(1,0,0,1,445,323)" stroke-linecap="butt">
      <path fill="none" d="M-114 -168.7044 L-114 -228.9274" clip-path="url(#clipPath2)"/>
      <path d="M-114 -239.9274 L-120 -227.9274 L-108 -227.9274 Z" clip-path="url(#clipPath2)" stroke="none"/>
    </g>
    <g text-rendering="geometricPrecision" stroke-miterlimit="1.45" shape-rendering="geometricPrecision" transform="matrix(1,0,0,1,445,323)" stroke-linecap="butt">
      <path fill="none" d="M-322.3125 -219.3132 L-322.3125 -244.9639 L-321.6875 -249.3389 L-319.8125 -252.4639 L-316.6875 -254.3389 L-312.3125 -254.9639 L-208.4861 -254.9639" clip-path="url(#clipPath2)"/>
      <path d="M-197.4861 -254.9639 L-209.4861 -260.9639 L-209.4861 -248.9639 Z" clip-path="url(#clipPath2)" stroke="none"/>
    </g>
    <g text-rendering="geometricPrecision" stroke-miterlimit="1.45" shape-rendering="geometricPrecision" transform="matrix(1,0,0,1,445,323)" stroke-linecap="butt">
      <path fill="none" d="M-21.9019 -239.9876 L-21.9019 -179.7298" clip-path="url(#clipPath2)"/>
      <path d="M-21.9019 -168.7298 L-15.9019 -180.7298 L-27.9019 -180.7298 Z" clip-path="url(#clipPath2)" stroke="none"/>
    </g>
  </g>
</svg>
