<?xml version="1.0" encoding="UTF-8"?><svg xmlns="http://www.w3.org/2000/svg" xmlns:xlink="http://www.w3.org/1999/xlink" fill-opacity="1" color-rendering="auto" color-interpolation="auto" text-rendering="auto" stroke="black" stroke-linecap="square" width="611" stroke-miterlimit="10" shape-rendering="auto" stroke-opacity="1" fill="black" stroke-dasharray="none" font-weight="normal" stroke-width="1" height="588" font-family="'Dialog'" font-style="normal" stroke-linejoin="miter" font-size="12px" stroke-dashoffset="0" image-rendering="auto">
  <!--Generated by ySVG 2.6-->
  <defs id="genericDefs"/>
  <g>
    <defs id="defs1">
      <linearGradient x1="-111" gradientUnits="userSpaceOnUse" x2="62" y1="-219.3389" y2="-219.3389" id="linearGradient1" spreadMethod="reflect">
        <stop stop-opacity="1" stop-color="silver" offset="0%"/>
        <stop stop-opacity="1" stop-color="white" offset="100%"/>
      </linearGradient>
      <linearGradient x1="-67.4205" gradientUnits="userSpaceOnUse" x2="24.2462" y1="7.4661" y2="7.4661" id="linearGradient2" spreadMethod="reflect">
        <stop stop-opacity="1" stop-color="silver" offset="0%"/>
        <stop stop-opacity="1" stop-color="white" offset="100%"/>
      </linearGradient>
      <clipPath clipPathUnits="userSpaceOnUse" id="clipPath1">
        <path d="M0 0 L611 0 L611 588 L0 588 L0 0 Z"/>
      </clipPath>
      <clipPath clipPathUnits="userSpaceOnUse" id="clipPath2">
        <path d="M-345 -323 L266 -323 L266 265 L-345 265 L-345 -323 Z"/>
      </clipPath>
    </defs>
    <g fill="white" text-rendering="geometricPrecision" shape-rendering="geometricPrecision" transform="translate(345,323)" stroke="white">
      <rect x="-345" width="611" height="588" y="-323" clip-path="url(#clipPath2)" stroke="none"/>
    </g>
    <g fill="rgb(245,245,245)" text-rendering="geometricPrecision" shape-rendering="geometricPrecision" transform="matrix(1,0,0,1,345,323)" stroke="rgb(245,245,245)">
      <rect x="-329.5038" y="82.6235" clip-path="url(#clipPath2)" width="580.2538" rx="4" ry="4" height="167.1471" stroke="none"/>
      <rect x="-329.5038" y="82.6235" clip-path="url(#clipPath2)" fill="rgb(235,235,235)" width="580.2538" height="22.3765" stroke="none"/>
    </g>
    <g font-size="15px" stroke-linecap="butt" transform="matrix(1,0,0,1,345,323)" text-rendering="geometricPrecision" font-family="sans-serif" shape-rendering="geometricPrecision" stroke-miterlimit="1.45">
      <text x="188.7134" xml:space="preserve" y="99.7041" clip-path="url(#clipPath2)" stroke="none">Frontend</text>
      <rect x="-329.5038" y="82.6235" clip-path="url(#clipPath2)" fill="none" width="580.2538" stroke-dasharray="6,2" rx="4" ry="4" height="167.1471"/>
    </g>
    <g fill="white" text-rendering="geometricPrecision" shape-rendering="geometricPrecision" transform="matrix(1,0,0,1,345,323)" stroke="white">
      <rect x="-314.5038" y="122.42" clip-path="url(#clipPath2)" width="107" rx="4" ry="4" height="78" stroke="none"/>
    </g>
    <g text-rendering="geometricPrecision" stroke-miterlimit="1.45" shape-rendering="geometricPrecision" font-family="sans-serif" transform="matrix(1,0,0,1,345,323)" stroke-linecap="butt">
      <text x="-274.0087" xml:space="preserve" y="166.1339" clip-path="url(#clipPath2)" stroke="none">View</text>
      <text x="-283.0146" xml:space="preserve" y="230.1339" clip-path="url(#clipPath2)" stroke="none">UI Logic</text>
      <rect x="-314.5038" y="122.42" clip-path="url(#clipPath2)" fill="none" width="107" rx="4" ry="4" height="78"/>
    </g>
    <g fill="white" text-rendering="geometricPrecision" shape-rendering="geometricPrecision" transform="matrix(1,0,0,1,345,323)" stroke="white">
      <rect x="-98.0038" y="122.42" clip-path="url(#clipPath2)" width="107" rx="4" ry="4" height="78" stroke="none"/>
    </g>
    <g text-rendering="geometricPrecision" stroke-miterlimit="1.45" shape-rendering="geometricPrecision" font-family="sans-serif" transform="matrix(1,0,0,1,345,323)" stroke-linecap="butt">
      <text x="-73.8505" xml:space="preserve" y="166.1339" clip-path="url(#clipPath2)" stroke="none">ViewModel</text>
      <text x="-94.203" xml:space="preserve" y="227.1339" clip-path="url(#clipPath2)" stroke="none">Presentation Logic</text>
      <rect x="-98.0038" y="122.42" clip-path="url(#clipPath2)" fill="none" width="107" rx="4" ry="4" height="78"/>
    </g>
    <g fill="white" text-rendering="geometricPrecision" shape-rendering="geometricPrecision" transform="matrix(1,0,0,1,345,323)" stroke="white">
      <rect x="54.4962" y="122.42" clip-path="url(#clipPath2)" width="107" rx="4" ry="4" height="78" stroke="none"/>
    </g>
    <g text-rendering="geometricPrecision" stroke-miterlimit="1.45" shape-rendering="geometricPrecision" font-family="sans-serif" transform="matrix(1,0,0,1,345,323)" stroke-linecap="butt">
      <text x="91.6544" xml:space="preserve" y="166.1339" clip-path="url(#clipPath2)" stroke="none">Model</text>
      <text x="41.6212" xml:space="preserve" y="228.1339" clip-path="url(#clipPath2)" stroke="none">Business Logic and Data</text>
      <rect x="54.4962" y="122.42" clip-path="url(#clipPath2)" fill="none" width="107" rx="4" ry="4" height="78"/>
    </g>
    <g text-rendering="geometricPrecision" stroke-miterlimit="1.45" shape-rendering="geometricPrecision" transform="matrix(1,0,0,1,345,323)" stroke-linecap="butt">
      <path fill="none" d="M-196.4866 161.42 L-109.0223 161.42" clip-path="url(#clipPath2)"/>
      <path d="M-207.4866 161.42 L-195.4866 167.42 L-195.4866 155.42 Z" clip-path="url(#clipPath2)" stroke="none"/>
      <path d="M-98.0223 161.42 L-110.0223 155.42 L-110.0223 167.42 Z" clip-path="url(#clipPath2)" stroke="none"/>
      <text x="-185.852" xml:space="preserve" y="159.7474" clip-path="url(#clipPath2)" font-family="sans-serif" stroke="none">Data Binding</text>
    </g>
    <g text-rendering="geometricPrecision" stroke-miterlimit="1.45" shape-rendering="geometricPrecision" transform="matrix(1,0,0,1,345,323)" stroke-linecap="butt">
      <path fill="none" d="M-196.4839 184.4112 L-109.0189 184.4112" clip-path="url(#clipPath2)"/>
      <path d="M-207.4839 184.4112 L-195.4839 190.4112 L-195.4839 178.4112 Z" clip-path="url(#clipPath2)" stroke="none"/>
      <path d="M-98.0189 184.4112 L-110.0189 178.4112 L-110.0189 190.4112 Z" clip-path="url(#clipPath2)" stroke="none"/>
      <text x="-183.4306" xml:space="preserve" y="181.5753" clip-path="url(#clipPath2)" font-family="sans-serif" stroke="none">Commands</text>
    </g>
    <g text-rendering="geometricPrecision" stroke-miterlimit="1.45" shape-rendering="geometricPrecision" transform="matrix(1,0,0,1,345,323)" stroke-linecap="butt">
      <path fill="none" d="M-97.9832 135.4847 L-196.5108 135.4847" clip-path="url(#clipPath2)"/>
      <path d="M-207.5108 135.4847 L-195.5108 141.4847 L-195.5108 129.4847 Z" clip-path="url(#clipPath2)" stroke="none"/>
      <text x="-178.9308" xml:space="preserve" y="132.9358" clip-path="url(#clipPath2)" font-family="sans-serif" stroke="none">Notification</text>
    </g>
    <g text-rendering="geometricPrecision" stroke-miterlimit="1.45" shape-rendering="geometricPrecision" transform="matrix(1,0,0,1,345,323)" stroke-linecap="butt">
      <path fill="none" d="M8.9978 141.7592 L43.4848 141.7592" clip-path="url(#clipPath2)"/>
      <path d="M54.4848 141.7592 L42.4848 135.7592 L42.4848 147.7592 Z" clip-path="url(#clipPath2)" stroke="none"/>
    </g>
    <g text-rendering="geometricPrecision" stroke-miterlimit="1.45" shape-rendering="geometricPrecision" transform="matrix(1,0,0,1,345,323)" stroke-linecap="butt">
      <path fill="none" d="M54.4703 174.9427 L20.0079 174.9427" clip-path="url(#clipPath2)"/>
      <path d="M9.0079 174.9427 L21.0079 180.9427 L21.0079 168.9427 Z" clip-path="url(#clipPath2)" stroke="none"/>
    </g>
    <g fill="rgb(245,245,245)" text-rendering="geometricPrecision" shape-rendering="geometricPrecision" transform="matrix(1,0,0,1,345,323)" stroke="rgb(245,245,245)">
      <rect x="-329.5038" y="-307.3403" clip-path="url(#clipPath2)" width="580.2538" rx="4" ry="4" height="359.8064" stroke="none"/>
      <rect x="-329.5038" y="-307.3403" clip-path="url(#clipPath2)" fill="rgb(235,235,235)" width="580.2538" height="22.3765" stroke="none"/>
    </g>
    <g font-size="15px" stroke-linecap="butt" transform="matrix(1,0,0,1,345,323)" text-rendering="geometricPrecision" font-family="sans-serif" shape-rendering="geometricPrecision" stroke-miterlimit="1.45">
      <text x="190.376" xml:space="preserve" y="-290.2598" clip-path="url(#clipPath2)" stroke="none">Backend</text>
      <rect x="-329.5038" y="-307.3403" clip-path="url(#clipPath2)" fill="none" width="580.2538" stroke-dasharray="6,2" rx="4" ry="4" height="359.8064"/>
      <text x="126.5273" xml:space="preserve" font-size="12px" y="-179.27" clip-path="url(#clipPath2)" stroke="none">Report Server</text>
      <rect x="92" y="-230.8589" clip-path="url(#clipPath2)" fill="none" width="143.75" rx="4" ry="4" height="93.75"/>
      <text x="-69.1119" xml:space="preserve" font-size="12px" y="-49.75" clip-path="url(#clipPath2)" stroke="none">Controller</text>
      <rect x="-113.2538" y="-93.4639" clip-path="url(#clipPath2)" fill="none" width="140.3033" rx="4" ry="4" height="78"/>
      <text x="134.9307" xml:space="preserve" font-size="12px" y="-64.4512" clip-path="url(#clipPath2)" stroke="none">Services</text>
      <text x="101.9131" xml:space="preserve" font-size="12px" y="-49.75" clip-path="url(#clipPath2)" stroke="none">(Transaction Handler</text>
      <text x="136.5977" xml:space="preserve" font-size="12px" y="-35.0488" clip-path="url(#clipPath2)" stroke="none">Implied)</text>
      <rect x="80.125" y="-93.4639" clip-path="url(#clipPath2)" fill="none" width="155.625" rx="4" ry="4" height="78"/>
      <text x="-109.4336" xml:space="preserve" font-size="12px" y="-145.625" clip-path="url(#clipPath2)" stroke="none">Domain Models</text>
      <rect x="-197.5" y="-168.7139" clip-path="url(#clipPath2)" fill="none" width="259.5" rx="4" ry="4" height="36.75"/>
      <text x="-115.4424" xml:space="preserve" font-size="12px" y="-250.25" clip-path="url(#clipPath2)" stroke="none">Database Objects</text>
      <rect x="-197.5" y="-269.9639" clip-path="url(#clipPath2)" fill="none" width="259.5" rx="4" ry="4" height="30"/>
    </g>
    <g fill="url(#linearGradient1)" text-rendering="geometricPrecision" shape-rendering="geometricPrecision" transform="matrix(1,0,0,1,345,323)" stroke="url(#linearGradient1)">
      <rect x="-197.5" y="-219.3389" clip-path="url(#clipPath2)" width="259.5" rx="4" ry="4" height="30" stroke="none"/>
    </g>
    <g text-rendering="geometricPrecision" stroke-miterlimit="1.45" shape-rendering="geometricPrecision" font-family="sans-serif" transform="matrix(1,0,0,1,345,323)" stroke-linecap="butt">
      <text x="-93.7656" xml:space="preserve" y="-199.625" clip-path="url(#clipPath2)" stroke="none">Hibernate</text>
      <rect x="-197.5" y="-219.3389" clip-path="url(#clipPath2)" fill="none" width="259.5" rx="4" ry="4" height="30"/>
    </g>
    <g fill="url(#linearGradient2)" text-rendering="geometricPrecision" shape-rendering="geometricPrecision" transform="matrix(1,0,0,1,345,323)" stroke="url(#linearGradient2)">
      <rect x="-113.2538" y="7.4661" clip-path="url(#clipPath2)" width="137.5" rx="4" ry="4" height="30" stroke="none"/>
    </g>
    <g text-rendering="geometricPrecision" stroke-miterlimit="1.45" shape-rendering="geometricPrecision" font-family="sans-serif" transform="matrix(1,0,0,1,345,323)" stroke-linecap="butt">
      <text x="-88.1854" xml:space="preserve" y="27.1799" clip-path="url(#clipPath2)" stroke="none">Interceptor/Filter</text>
      <rect x="-113.2538" y="7.4661" clip-path="url(#clipPath2)" fill="none" width="137.5" rx="4" ry="4" height="30"/>
    </g>
    <g text-rendering="geometricPrecision" stroke-miterlimit="1.45" shape-rendering="geometricPrecision" transform="matrix(1,0,0,1,345,323)" stroke-linecap="butt">
      <path fill="none" d="M-70.3378 122.4207 L-70.3378 -4.4498" clip-path="url(#clipPath2)"/>
      <path d="M-70.3378 -15.4498 L-76.3378 -3.4498 L-64.3378 -3.4498 Z" clip-path="url(#clipPath2)" stroke="none"/>
      <text x="-122.6855" xml:space="preserve" y="70.9919" clip-path="url(#clipPath2)" font-family="sans-serif" stroke="none">Request</text>
    </g>
    <g text-rendering="geometricPrecision" stroke-miterlimit="1.45" shape-rendering="geometricPrecision" transform="matrix(1,0,0,1,345,323)" stroke-linecap="butt">
      <path fill="none" d="M-28.3706 -15.4741 L-28.3706 111.4465" clip-path="url(#clipPath2)"/>
      <path d="M-28.3706 122.4465 L-22.3706 110.4465 L-34.3706 110.4465 Z" clip-path="url(#clipPath2)" stroke="none"/>
      <text x="-22.3881" xml:space="preserve" y="72.9119" clip-path="url(#clipPath2)" font-family="sans-serif" stroke="none">Respond</text>
    </g>
    <g text-rendering="geometricPrecision" stroke-miterlimit="1.45" shape-rendering="geometricPrecision" transform="matrix(1,0,0,1,345,323)" stroke-linecap="butt">
      <path fill="none" d="M27.0359 -62.4639 L69.1188 -62.4639" clip-path="url(#clipPath2)"/>
      <path d="M80.1188 -62.4639 L68.1188 -68.4639 L68.1188 -56.4639 Z" clip-path="url(#clipPath2)" stroke="none"/>
    </g>
    <g text-rendering="geometricPrecision" stroke-miterlimit="1.45" shape-rendering="geometricPrecision" transform="matrix(1,0,0,1,345,323)" stroke-linecap="butt">
      <path fill="none" d="M80.1096 -42.4639 L38.0333 -42.4639" clip-path="url(#clipPath2)"/>
      <path d="M27.0333 -42.4639 L39.0333 -36.4639 L39.0333 -48.4639 Z" clip-path="url(#clipPath2)" stroke="none"/>
    </g>
    <g text-rendering="geometricPrecision" stroke-miterlimit="1.45" shape-rendering="geometricPrecision" transform="matrix(1,0,0,1,345,323)" stroke-linecap="butt">
      <path fill="none" d="M163.875 -93.4527 L163.875 -126.0827" clip-path="url(#clipPath2)"/>
      <path d="M163.875 -137.0827 L157.875 -125.0827 L169.875 -125.0827 Z" clip-path="url(#clipPath2)" stroke="none"/>
    </g>
    <g text-rendering="geometricPrecision" stroke-miterlimit="1.45" shape-rendering="geometricPrecision" transform="matrix(1,0,0,1,345,323)" stroke-linecap="butt">
      <path fill="none" d="M84.6666 -99.5832 L45.2121 -125.8748" clip-path="url(#clipPath2)"/>
      <path d="M93.8204 -93.4833 L87.1617 -105.1307 L80.5073 -95.1447 Z" clip-path="url(#clipPath2)" stroke="none"/>
      <path d="M36.0583 -131.9746 L42.7171 -120.3273 L49.3715 -130.3132 Z" clip-path="url(#clipPath2)" stroke="none"/>
    </g>
    <g text-rendering="geometricPrecision" stroke-miterlimit="1.45" shape-rendering="geometricPrecision" transform="matrix(1,0,0,1,345,323)" stroke-linecap="butt">
      <path fill="none" d="M-114 -168.7044 L-114 -228.9274" clip-path="url(#clipPath2)"/>
      <path d="M-114 -239.9274 L-120 -227.9274 L-108 -227.9274 Z" clip-path="url(#clipPath2)" stroke="none"/>
    </g>
    <g text-rendering="geometricPrecision" stroke-miterlimit="1.45" shape-rendering="geometricPrecision" transform="matrix(1,0,0,1,345,323)" stroke-linecap="butt">
      <path fill="none" d="M163.875 -230.8764 L163.875 -244.9639 L163.25 -249.3389 L161.375 -252.4639 L158.25 -254.3389 L153.875 -254.9639 L73.0018 -254.9639" clip-path="url(#clipPath2)"/>
      <path d="M62.0018 -254.9639 L74.0018 -248.9639 L74.0018 -260.9639 Z" clip-path="url(#clipPath2)" stroke="none"/>
    </g>
    <g text-rendering="geometricPrecision" stroke-miterlimit="1.45" shape-rendering="geometricPrecision" transform="matrix(1,0,0,1,345,323)" stroke-linecap="butt">
      <path fill="none" d="M-21.9019 -239.9876 L-21.9019 -179.7298" clip-path="url(#clipPath2)"/>
      <path d="M-21.9019 -168.7298 L-15.9019 -180.7298 L-27.9019 -180.7298 Z" clip-path="url(#clipPath2)" stroke="none"/>
    </g>
  </g>
</svg>
