<?xml version="1.0" encoding="UTF-8"?><svg xmlns="http://www.w3.org/2000/svg" xmlns:xlink="http://www.w3.org/1999/xlink" fill-opacity="1" color-rendering="auto" color-interpolation="auto" text-rendering="auto" stroke="black" stroke-linecap="square" width="667" stroke-miterlimit="10" shape-rendering="auto" stroke-opacity="1" fill="black" stroke-dasharray="none" font-weight="normal" stroke-width="1" height="675" font-family="'Dialog'" font-style="normal" stroke-linejoin="miter" font-size="12px" stroke-dashoffset="0" image-rendering="auto">
  <!--Generated by ySVG 2.6-->
  <defs id="genericDefs"/>
  <g>
    <defs id="defs1">
      <linearGradient x1="1329.9816" gradientUnits="userSpaceOnUse" x2="1411.9816" y1="629.5" y2="688.9" id="linearGradient1" spreadMethod="reflect">
        <stop stop-opacity="1" stop-color="rgb(232,238,247)" offset="0%"/>
        <stop stop-opacity="1" stop-color="rgb(183,201,227)" offset="100%"/>
      </linearGradient>
      <linearGradient x1="1217.9816" gradientUnits="userSpaceOnUse" x2="1299.9816" y1="629.5" y2="688.9" id="linearGradient2" spreadMethod="reflect">
        <stop stop-opacity="1" stop-color="rgb(232,238,247)" offset="0%"/>
        <stop stop-opacity="1" stop-color="rgb(183,201,227)" offset="100%"/>
      </linearGradient>
      <linearGradient x1="1097.4816" gradientUnits="userSpaceOnUse" x2="1179.4816" y1="629.5" y2="688.9" id="linearGradient3" spreadMethod="reflect">
        <stop stop-opacity="1" stop-color="rgb(232,238,247)" offset="0%"/>
        <stop stop-opacity="1" stop-color="rgb(183,201,227)" offset="100%"/>
      </linearGradient>
      <clipPath clipPathUnits="userSpaceOnUse" id="clipPath1">
        <path d="M0 0 L667 0 L667 675 L0 675 L0 0 Z"/>
      </clipPath>
      <clipPath clipPathUnits="userSpaceOnUse" id="clipPath2">
        <path d="M977 39 L1644 39 L1644 714 L977 714 L977 39 Z"/>
      </clipPath>
    </defs>
    <g fill="white" text-rendering="geometricPrecision" shape-rendering="geometricPrecision" transform="translate(-977,-39)" stroke="white">
      <rect x="977" width="667" height="675" y="39" clip-path="url(#clipPath2)" stroke="none"/>
    </g>
    <g text-rendering="geometricPrecision" stroke-miterlimit="1.45" shape-rendering="geometricPrecision" font-family="sans-serif" transform="matrix(1,0,0,1,-977,-39)" stroke-linecap="butt">
      <text x="1571.2607" xml:space="preserve" y="629.7645" clip-path="url(#clipPath2)" stroke="none">Database</text>
      <text x="1587.2861" xml:space="preserve" y="644.4656" clip-path="url(#clipPath2)" stroke="none">Server</text>
      <rect x="992.6298" y="611.7" clip-path="url(#clipPath2)" fill="none" width="636" stroke-dasharray="6,2" rx="4" ry="4" height="87"/>
    </g>
    <g fill="rgb(255,255,153)" text-rendering="geometricPrecision" shape-rendering="geometricPrecision" transform="matrix(1,0,0,1,-977,-39)" stroke="rgb(255,255,153)">
      <rect x="1004.4816" width="614" height="276" y="323.5" clip-path="url(#clipPath2)" stroke="none"/>
    </g>
    <g font-size="16px" stroke-linecap="butt" transform="matrix(1,0,0,1,-977,-39)" text-rendering="geometricPrecision" font-family="sans-serif" shape-rendering="geometricPrecision" stroke-miterlimit="1.45">
      <text x="1534.2081" xml:space="preserve" y="345.5859" clip-path="url(#clipPath2)" stroke="none">Application</text>
      <text x="1543.1066" xml:space="preserve" y="365.1875" clip-path="url(#clipPath2)" stroke="none">Container</text>
      <rect fill="none" x="1004.4816" width="614" height="276" y="323.5" clip-path="url(#clipPath2)"/>
      <text x="1560.5908" xml:space="preserve" font-size="12px" y="235.0645" clip-path="url(#clipPath2)" stroke="none">Application </text>
      <text x="1587.2861" xml:space="preserve" font-size="12px" y="249.7656" clip-path="url(#clipPath2)" stroke="none">Server</text>
      <rect x="992.6298" y="217" clip-path="url(#clipPath2)" fill="none" width="636" stroke-dasharray="6,2" rx="4" ry="4" height="390"/>
    </g>
    <g fill="rgb(255,153,0)" text-rendering="geometricPrecision" shape-rendering="geometricPrecision" transform="matrix(1,0,0,1,-977,-39)" stroke="rgb(255,153,0)">
      <rect x="1462.4816" y="406.2" clip-path="url(#clipPath2)" width="144.8" rx="4" ry="4" height="133.5" stroke="none"/>
    </g>
    <g text-rendering="geometricPrecision" stroke-miterlimit="1.45" shape-rendering="geometricPrecision" font-family="sans-serif" transform="matrix(1,0,0,1,-977,-39)" stroke-linecap="butt">
      <text x="1503.2543" xml:space="preserve" y="424.2645" clip-path="url(#clipPath2)" stroke="none">Spring Framework</text>
      <rect x="1462.4816" y="406.2" clip-path="url(#clipPath2)" fill="none" width="144.8" rx="4" ry="4" height="133.5"/>
      <text x="1559.2783" xml:space="preserve" y="72.0645" clip-path="url(#clipPath2)" stroke="none">Workstation</text>
      <rect x="992.6298" y="54" clip-path="url(#clipPath2)" fill="none" width="636" stroke-dasharray="6,2" rx="4" ry="4" height="156.25"/>
    </g>
    <g fill="rgb(153,204,0)" text-rendering="geometricPrecision" shape-rendering="geometricPrecision" transform="matrix(1,0,0,1,-977,-39)" stroke="rgb(153,204,0)">
      <rect x="1004.4816" width="547" height="141" y="63" clip-path="url(#clipPath2)" stroke="none"/>
    </g>
    <g font-size="16px" stroke-linecap="butt" transform="matrix(1,0,0,1,-977,-39)" text-rendering="geometricPrecision" font-family="sans-serif" shape-rendering="geometricPrecision" stroke-miterlimit="1.45">
      <text x="1486.8019" xml:space="preserve" y="85.0859" clip-path="url(#clipPath2)" stroke="none">Browser</text>
      <rect fill="none" x="1004.4816" width="547" height="141" y="63" clip-path="url(#clipPath2)"/>
    </g>
    <g fill="rgb(204,255,255)" text-rendering="geometricPrecision" shape-rendering="geometricPrecision" transform="matrix(1,0,0,1,-977,-39)" stroke="rgb(204,255,255)">
      <rect x="1016.4816" y="72" clip-path="url(#clipPath2)" width="435.8" rx="4" ry="4" height="30" stroke="none"/>
    </g>
    <g text-rendering="geometricPrecision" stroke-miterlimit="1.45" shape-rendering="geometricPrecision" font-family="sans-serif" transform="matrix(1,0,0,1,-977,-39)" stroke-linecap="butt">
      <text x="1030.1414" xml:space="preserve" y="91.7139" clip-path="url(#clipPath2)" stroke="none">UI (HTML5) + CSS + JavaScript (ES5) + Applet (Optional for HW integration)</text>
      <rect x="1016.4816" y="72" clip-path="url(#clipPath2)" fill="none" width="435.8" rx="4" ry="4" height="30"/>
    </g>
    <g fill="rgb(204,255,255)" text-rendering="geometricPrecision" shape-rendering="geometricPrecision" transform="matrix(1,0,0,1,-977,-39)" stroke="rgb(204,255,255)">
      <rect x="1016.4816" y="109" clip-path="url(#clipPath2)" width="435.8" rx="4" ry="4" height="87" stroke="none"/>
    </g>
    <g text-rendering="geometricPrecision" stroke-miterlimit="1.45" shape-rendering="geometricPrecision" font-family="sans-serif" transform="matrix(1,0,0,1,-977,-39)" stroke-linecap="butt">
      <text x="1318.8988" xml:space="preserve" y="127.0645" clip-path="url(#clipPath2)" stroke="none">Ajax Framework/Engine</text>
      <rect x="1016.4816" y="109" clip-path="url(#clipPath2)" fill="none" width="435.8" rx="4" ry="4" height="87"/>
    </g>
    <g fill="rgb(153,204,255)" text-rendering="geometricPrecision" shape-rendering="geometricPrecision" transform="matrix(1,0,0,1,-977,-39)" stroke="rgb(153,204,255)">
      <rect x="1030.9816" y="134" clip-path="url(#clipPath2)" width="82" rx="4" ry="4" height="49" stroke="none"/>
    </g>
    <g text-rendering="geometricPrecision" stroke-miterlimit="1.45" shape-rendering="geometricPrecision" font-family="sans-serif" transform="matrix(1,0,0,1,-977,-39)" stroke-linecap="butt">
      <text x="1057.3097" xml:space="preserve" y="155.8633" clip-path="url(#clipPath2)" stroke="none">View </text>
      <text x="1045.9718" xml:space="preserve" y="170.5645" clip-path="url(#clipPath2)" stroke="none">Controller</text>
      <rect x="1030.9816" y="134" clip-path="url(#clipPath2)" fill="none" width="82" rx="4" ry="4" height="49"/>
    </g>
    <g fill="rgb(153,204,255)" text-rendering="geometricPrecision" shape-rendering="geometricPrecision" transform="matrix(1,0,0,1,-977,-39)" stroke="rgb(153,204,255)">
      <rect x="1128.9816" y="135" clip-path="url(#clipPath2)" width="82" rx="4" ry="4" height="49" stroke="none"/>
    </g>
    <g text-rendering="geometricPrecision" stroke-miterlimit="1.45" shape-rendering="geometricPrecision" font-family="sans-serif" transform="matrix(1,0,0,1,-977,-39)" stroke-linecap="butt">
      <text x="1155.3097" xml:space="preserve" y="156.8633" clip-path="url(#clipPath2)" stroke="none">View </text>
      <text x="1153.6398" xml:space="preserve" y="171.5645" clip-path="url(#clipPath2)" stroke="none">Model</text>
      <rect x="1128.9816" y="135" clip-path="url(#clipPath2)" fill="none" width="82" rx="4" ry="4" height="49"/>
    </g>
    <g fill="rgb(153,204,255)" text-rendering="geometricPrecision" shape-rendering="geometricPrecision" transform="matrix(1,0,0,1,-977,-39)" stroke="rgb(153,204,255)">
      <rect x="1226.9816" y="135" clip-path="url(#clipPath2)" width="102" rx="4" ry="4" height="49" stroke="none"/>
    </g>
    <g text-rendering="geometricPrecision" stroke-miterlimit="1.45" shape-rendering="geometricPrecision" font-family="sans-serif" transform="matrix(1,0,0,1,-977,-39)" stroke-linecap="butt">
      <text x="1270.3146" xml:space="preserve" y="156.8633" clip-path="url(#clipPath2)" stroke="none">UI </text>
      <text x="1232.6241" xml:space="preserve" y="171.5645" clip-path="url(#clipPath2)" stroke="none">Layout / Controls</text>
      <rect x="1226.9816" y="135" clip-path="url(#clipPath2)" fill="none" width="102" rx="4" ry="4" height="49"/>
    </g>
    <g fill="rgb(153,204,255)" text-rendering="geometricPrecision" shape-rendering="geometricPrecision" transform="matrix(1,0,0,1,-977,-39)" stroke="rgb(153,204,255)">
      <rect x="1340.0816" y="135" clip-path="url(#clipPath2)" width="82" rx="4" ry="4" height="49" stroke="none"/>
    </g>
    <g text-rendering="geometricPrecision" stroke-miterlimit="1.45" shape-rendering="geometricPrecision" font-family="sans-serif" transform="matrix(1,0,0,1,-977,-39)" stroke-linecap="butt">
      <text x="1363.0669" xml:space="preserve" y="164.2139" clip-path="url(#clipPath2)" stroke="none">Layout</text>
      <rect x="1340.0816" y="135" clip-path="url(#clipPath2)" fill="none" width="82" rx="4" ry="4" height="49"/>
    </g>
    <g fill="rgb(255,204,0)" text-rendering="geometricPrecision" shape-rendering="geometricPrecision" transform="matrix(1,0,0,1,-977,-39)" stroke="rgb(255,204,0)">
      <rect x="1017.8016" y="336.5" clip-path="url(#clipPath2)" width="434.48" rx="4" ry="4" height="163.8" stroke="none"/>
    </g>
    <g text-rendering="geometricPrecision" stroke-miterlimit="1.45" shape-rendering="geometricPrecision" font-family="sans-serif" transform="matrix(1,0,0,1,-977,-39)" stroke-linecap="butt">
      <text x="1407.9408" xml:space="preserve" y="354.5645" clip-path="url(#clipPath2)" stroke="none">Grails/</text>
      <text x="1404.2699" xml:space="preserve" y="369.2656" clip-path="url(#clipPath2)" stroke="none">Groovy/</text>
      <text x="1412.6019" xml:space="preserve" y="383.9668" clip-path="url(#clipPath2)" stroke="none">Java</text>
      <rect x="1017.8016" y="336.5" clip-path="url(#clipPath2)" fill="none" width="434.48" rx="4" ry="4" height="163.8"/>
    </g>
    <g fill="rgb(51,204,204)" text-rendering="geometricPrecision" shape-rendering="geometricPrecision" transform="matrix(1,0,0,1,-977,-39)" stroke="rgb(51,204,204)">
      <rect x="1027.4016" y="343.3" clip-path="url(#clipPath2)" width="336.08" rx="4" ry="4" height="30" stroke="none"/>
    </g>
    <g text-rendering="geometricPrecision" stroke-miterlimit="1.45" shape-rendering="geometricPrecision" font-family="sans-serif" transform="matrix(1,0,0,1,-977,-39)" stroke-linecap="butt">
      <text x="1125.0909" xml:space="preserve" y="363.0139" clip-path="url(#clipPath2)" stroke="none">Grails Interceptors / Filters</text>
      <rect x="1027.4016" y="343.3" clip-path="url(#clipPath2)" fill="none" width="336.08" rx="4" ry="4" height="30"/>
    </g>
    <g fill="rgb(0,204,255)" text-rendering="geometricPrecision" shape-rendering="geometricPrecision" transform="matrix(1,0,0,1,-977,-39)" stroke="rgb(0,204,255)">
      <rect x="1027.4016" y="382.1" clip-path="url(#clipPath2)" width="336.08" rx="4" ry="4" height="49" stroke="none"/>
    </g>
    <g text-rendering="geometricPrecision" stroke-miterlimit="1.45" shape-rendering="geometricPrecision" font-family="sans-serif" transform="matrix(1,0,0,1,-977,-39)" stroke-linecap="butt">
      <text x="1166.4318" xml:space="preserve" y="411.3139" clip-path="url(#clipPath2)" stroke="none">Controllers</text>
      <rect x="1027.4016" y="382.1" clip-path="url(#clipPath2)" fill="none" width="336.08" rx="4" ry="4" height="49"/>
    </g>
    <g fill="rgb(0,204,255)" text-rendering="geometricPrecision" shape-rendering="geometricPrecision" transform="matrix(1,0,0,1,-977,-39)" stroke="rgb(0,204,255)">
      <rect x="1027.4016" y="439.9" clip-path="url(#clipPath2)" width="158.8" rx="4" ry="4" height="49" stroke="none"/>
    </g>
    <g text-rendering="geometricPrecision" stroke-miterlimit="1.45" shape-rendering="geometricPrecision" font-family="sans-serif" transform="matrix(1,0,0,1,-977,-39)" stroke-linecap="butt">
      <text x="1083.7948" xml:space="preserve" y="469.1139" clip-path="url(#clipPath2)" stroke="none">Services</text>
      <rect x="1027.4016" y="439.9" clip-path="url(#clipPath2)" fill="none" width="158.8" rx="4" ry="4" height="49"/>
    </g>
    <g fill="rgb(0,204,255)" text-rendering="geometricPrecision" shape-rendering="geometricPrecision" transform="matrix(1,0,0,1,-977,-39)" stroke="rgb(0,204,255)">
      <rect x="1198.5816" y="439.9" clip-path="url(#clipPath2)" width="164.9" rx="4" ry="4" height="49" stroke="none"/>
    </g>
    <g text-rendering="geometricPrecision" stroke-miterlimit="1.45" shape-rendering="geometricPrecision" font-family="sans-serif" transform="matrix(1,0,0,1,-977,-39)" stroke-linecap="butt">
      <text x="1257.3568" xml:space="preserve" y="469.1139" clip-path="url(#clipPath2)" stroke="none">Domains</text>
      <rect x="1198.5816" y="439.9" clip-path="url(#clipPath2)" fill="none" width="164.9" rx="4" ry="4" height="49"/>
    </g>
    <g fill="rgb(204,255,204)" text-rendering="geometricPrecision" shape-rendering="geometricPrecision" transform="matrix(1,0,0,1,-977,-39)" stroke="rgb(204,255,204)">
      <rect x="1017.8016" y="509.7" clip-path="url(#clipPath2)" width="434.48" rx="4" ry="4" height="30" stroke="none"/>
    </g>
    <g text-rendering="geometricPrecision" stroke-miterlimit="1.45" shape-rendering="geometricPrecision" font-family="sans-serif" transform="matrix(1,0,0,1,-977,-39)" stroke-linecap="butt">
      <text x="1209.026" xml:space="preserve" y="529.4139" clip-path="url(#clipPath2)" stroke="none">Hibernate</text>
      <rect x="1017.8016" y="509.7" clip-path="url(#clipPath2)" fill="none" width="434.48" rx="4" ry="4" height="30"/>
    </g>
    <g fill="rgb(204,255,204)" text-rendering="geometricPrecision" shape-rendering="geometricPrecision" transform="matrix(1,0,0,1,-977,-39)" stroke="rgb(204,255,204)">
      <rect x="1017.8016" y="549.1" clip-path="url(#clipPath2)" width="589.48" rx="4" ry="4" height="40.4" stroke="none"/>
    </g>
    <g text-rendering="geometricPrecision" stroke-miterlimit="1.45" shape-rendering="geometricPrecision" font-family="sans-serif" transform="matrix(1,0,0,1,-977,-39)" stroke-linecap="butt">
      <text x="1299.8678" xml:space="preserve" y="566.6633" clip-path="url(#clipPath2)" stroke="none">Java</text>
      <text x="1296.5455" xml:space="preserve" y="581.3644" clip-path="url(#clipPath2)" stroke="none">(JVM)</text>
      <rect x="1017.8016" y="549.1" clip-path="url(#clipPath2)" fill="none" width="589.48" rx="4" ry="4" height="40.4"/>
    </g>
    <g fill="silver" text-rendering="geometricPrecision" shape-rendering="geometricPrecision" transform="matrix(1,0,0,1,-977,-39)" stroke="silver">
      <rect x="1004.4816" width="547" height="59.4" y="237.175" clip-path="url(#clipPath2)" stroke="none"/>
    </g>
    <g font-size="16px" stroke-linecap="butt" transform="matrix(1,0,0,1,-977,-39)" text-rendering="geometricPrecision" font-family="sans-serif" shape-rendering="geometricPrecision" stroke-miterlimit="1.45">
      <text x="1461.0128" xml:space="preserve" y="259.2609" clip-path="url(#clipPath2)" stroke="none">Web Server</text>
      <rect fill="none" x="1004.4816" width="547" height="59.4" y="237.175" clip-path="url(#clipPath2)"/>
    </g>
    <g fill="rgb(255,204,0)" text-rendering="geometricPrecision" shape-rendering="geometricPrecision" transform="matrix(1,0,0,1,-977,-39)" stroke="rgb(255,204,0)">
      <rect x="1017.9981" y="251.875" clip-path="url(#clipPath2)" width="434.2835" rx="4" ry="4" height="30" stroke="none"/>
    </g>
    <g text-rendering="geometricPrecision" stroke-miterlimit="1.45" shape-rendering="geometricPrecision" font-family="sans-serif" transform="matrix(1,0,0,1,-977,-39)" stroke-linecap="butt">
      <text x="1156.7854" xml:space="preserve" y="271.5889" clip-path="url(#clipPath2)" stroke="none">Reverse Proxy / URL Rewrite</text>
      <rect x="1017.9981" y="251.875" clip-path="url(#clipPath2)" fill="none" width="434.2835" rx="4" ry="4" height="30"/>
    </g>
    <g fill="rgb(255,204,153)" text-rendering="geometricPrecision" shape-rendering="geometricPrecision" transform="matrix(1,0,0,1,-977,-39)" stroke="rgb(255,204,153)">
      <rect x="1004.4816" width="547" height="69.4" y="619.5" clip-path="url(#clipPath2)" stroke="none"/>
    </g>
    <g font-size="16px" stroke-linecap="butt" transform="matrix(1,0,0,1,-977,-39)" text-rendering="geometricPrecision" font-family="sans-serif" shape-rendering="geometricPrecision" stroke-miterlimit="1.45">
      <text x="1476.9894" xml:space="preserve" y="641.5859" clip-path="url(#clipPath2)" stroke="none">Database</text>
      <rect fill="none" x="1004.4816" width="547" height="69.4" y="619.5" clip-path="url(#clipPath2)"/>
    </g>
    <g fill="url(#linearGradient1)" text-rendering="geometricPrecision" shape-rendering="geometricPrecision" transform="matrix(1,0,0,1,-977,-39)" stroke="url(#linearGradient1)">
      <path d="M1329.9816 641.38 C1332.4415 629.5 1409.5216 629.5 1411.9816 641.38 L1411.9816 677.02 C1409.5216 688.9 1332.4415 688.9 1329.9816 677.02 Z" stroke="none" clip-path="url(#clipPath2)"/>
    </g>
    <g text-rendering="geometricPrecision" stroke-miterlimit="1.45" shape-rendering="geometricPrecision" transform="matrix(1,0,0,1,-977,-39)" stroke-linecap="butt">
      <path fill="none" d="M1329.9816 641.38 C1332.4415 629.5 1409.5216 629.5 1411.9816 641.38 L1411.9816 677.02 C1409.5216 688.9 1332.4415 688.9 1329.9816 677.02 Z" clip-path="url(#clipPath2)"/>
      <path fill="none" d="M1411.9816 641.38 C1409.5216 653.26 1332.4415 653.26 1329.9816 641.38" clip-path="url(#clipPath2)"/>
      <text x="1341.629" xml:space="preserve" y="656.5633" clip-path="url(#clipPath2)" font-family="sans-serif" stroke="none">Application</text>
      <text x="1345.297" xml:space="preserve" y="671.2645" clip-path="url(#clipPath2)" font-family="sans-serif" stroke="none">Database</text>
    </g>
    <g fill="rgb(255,153,204)" text-rendering="geometricPrecision" shape-rendering="geometricPrecision" transform="matrix(1,0,0,1,-977,-39)" stroke="rgb(255,153,204)">
      <rect x="1473.9816" y="429.2" clip-path="url(#clipPath2)" width="118" rx="4" ry="4" height="30" stroke="none"/>
    </g>
    <g text-rendering="geometricPrecision" stroke-miterlimit="1.45" shape-rendering="geometricPrecision" font-family="sans-serif" transform="matrix(1,0,0,1,-977,-39)" stroke-linecap="butt">
      <text x="1498.6281" xml:space="preserve" y="448.9139" clip-path="url(#clipPath2)" stroke="none">Spring Batch</text>
      <rect x="1473.9816" y="429.2" clip-path="url(#clipPath2)" fill="none" width="118" rx="4" ry="4" height="30"/>
    </g>
    <g fill="rgb(255,153,204)" text-rendering="geometricPrecision" shape-rendering="geometricPrecision" transform="matrix(1,0,0,1,-977,-39)" stroke="rgb(255,153,204)">
      <rect x="1473.9816" y="465.825" clip-path="url(#clipPath2)" width="118" rx="4" ry="4" height="30" stroke="none"/>
    </g>
    <g text-rendering="geometricPrecision" stroke-miterlimit="1.45" shape-rendering="geometricPrecision" font-family="sans-serif" transform="matrix(1,0,0,1,-977,-39)" stroke-linecap="butt">
      <text x="1485.6173" xml:space="preserve" y="485.5389" clip-path="url(#clipPath2)" stroke="none">Spring Integration</text>
      <rect x="1473.9816" y="465.825" clip-path="url(#clipPath2)" fill="none" width="118" rx="4" ry="4" height="30"/>
    </g>
    <g fill="rgb(255,204,0)" text-rendering="geometricPrecision" shape-rendering="geometricPrecision" transform="matrix(1,0,0,1,-977,-39)" stroke="rgb(255,204,0)">
      <rect x="1475.8816" y="502.45" clip-path="url(#clipPath2)" width="116.1" rx="4" ry="4" height="30" stroke="none"/>
    </g>
    <g text-rendering="geometricPrecision" stroke-miterlimit="1.45" shape-rendering="geometricPrecision" font-family="sans-serif" transform="matrix(1,0,0,1,-977,-39)" stroke-linecap="butt">
      <text x="1507.916" xml:space="preserve" y="522.1639" clip-path="url(#clipPath2)" stroke="none">Hibernate</text>
      <rect x="1475.8816" y="502.45" clip-path="url(#clipPath2)" fill="none" width="116.1" rx="4" ry="4" height="30"/>
    </g>
    <g fill="url(#linearGradient2)" text-rendering="geometricPrecision" shape-rendering="geometricPrecision" transform="matrix(1,0,0,1,-977,-39)" stroke="url(#linearGradient2)">
      <path d="M1217.9816 641.38 C1220.4415 629.5 1297.5216 629.5 1299.9816 641.38 L1299.9816 677.02 C1297.5216 688.9 1220.4415 688.9 1217.9816 677.02 Z" stroke="none" clip-path="url(#clipPath2)"/>
    </g>
    <g text-rendering="geometricPrecision" stroke-miterlimit="1.45" shape-rendering="geometricPrecision" transform="matrix(1,0,0,1,-977,-39)" stroke-linecap="butt">
      <path fill="none" d="M1217.9816 641.38 C1220.4415 629.5 1297.5216 629.5 1299.9816 641.38 L1299.9816 677.02 C1297.5216 688.9 1220.4415 688.9 1217.9816 677.02 Z" clip-path="url(#clipPath2)"/>
      <path fill="none" d="M1299.9816 641.38 C1297.5216 653.26 1220.4415 653.26 1217.9816 641.38" clip-path="url(#clipPath2)"/>
      <text x="1223.3009" xml:space="preserve" y="656.5633" clip-path="url(#clipPath2)" font-family="sans-serif" stroke="none">ReportServer</text>
      <text x="1233.297" xml:space="preserve" y="671.2645" clip-path="url(#clipPath2)" font-family="sans-serif" stroke="none">Database</text>
    </g>
    <g fill="url(#linearGradient3)" text-rendering="geometricPrecision" shape-rendering="geometricPrecision" transform="matrix(1,0,0,1,-977,-39)" stroke="url(#linearGradient3)">
      <path d="M1097.4816 641.38 C1099.9415 629.5 1177.0216 629.5 1179.4816 641.38 L1179.4816 677.02 C1177.0216 688.9 1099.9415 688.9 1097.4816 677.02 Z" stroke="none" clip-path="url(#clipPath2)"/>
    </g>
    <g text-rendering="geometricPrecision" stroke-miterlimit="1.45" shape-rendering="geometricPrecision" transform="matrix(1,0,0,1,-977,-39)" stroke-linecap="butt">
      <path fill="none" d="M1097.4816 641.38 C1099.9415 629.5 1177.0216 629.5 1179.4816 641.38 L1179.4816 677.02 C1177.0216 688.9 1099.9415 688.9 1097.4816 677.02 Z" clip-path="url(#clipPath2)"/>
      <path fill="none" d="M1179.4816 641.38 C1177.0216 653.26 1099.9415 653.26 1097.4816 641.38" clip-path="url(#clipPath2)"/>
      <text x="1123.1388" xml:space="preserve" y="656.5633" clip-path="url(#clipPath2)" font-family="sans-serif" stroke="none">Batch</text>
      <text x="1112.797" xml:space="preserve" y="671.2645" clip-path="url(#clipPath2)" font-family="sans-serif" stroke="none">Database</text>
    </g>
    <g text-rendering="geometricPrecision" stroke-miterlimit="1.45" shape-rendering="geometricPrecision" transform="matrix(1,0,0,1,-977,-39)" stroke-linecap="butt">
      <path fill="none" d="M1277.9816 204 L1277.9816 229.175" clip-path="url(#clipPath2)"/>
      <path d="M1277.9816 237.175 L1282.9816 225.175 L1277.9816 228.175 L1272.9816 225.175 Z" clip-path="url(#clipPath2)" stroke="none"/>
      <text x="1234.9738" xml:space="preserve" y="227.5383" clip-path="url(#clipPath2)" font-family="sans-serif" stroke="none">https</text>
      <path fill="none" d="M1272.3109 296.5421 L1272.3109 315.4955" clip-path="url(#clipPath2)"/>
      <path d="M1272.3109 323.4955 L1277.3109 311.4955 L1272.3109 314.4955 L1267.3109 311.4955 Z" clip-path="url(#clipPath2)" stroke="none"/>
      <text x="1229.3031" xml:space="preserve" y="314.4008" clip-path="url(#clipPath2)" font-family="sans-serif" stroke="none">https</text>
      <path fill="none" d="M1272.3109 599.4856 L1272.3109 611.4959" clip-path="url(#clipPath2)"/>
      <path d="M1272.3109 619.4959 L1277.3109 607.4959 L1272.3109 610.4959 L1267.3109 607.4959 Z" clip-path="url(#clipPath2)" stroke="none"/>
      <rect x="1224.643" y="600.6494" clip-path="url(#clipPath2)" fill="white" width="35.3359" height="18.7012" stroke="none"/>
      <text x="1226.6429" xml:space="preserve" y="614.7139" clip-path="url(#clipPath2)" font-family="sans-serif" stroke="none">JDBC</text>
    </g>
  </g>
</svg>
